<?xml version="1.0" encoding="UTF-8"?>
<svg id="b" data-name="Livello 2" xmlns="http://www.w3.org/2000/svg" viewBox="0 0 386.79 368.17">
  <g id="c" data-name="Livello 2">
    <g>
      <g>
        <path d="M381.77,97.78s.01.07-.03.06c-2.11-.6-4.36-.96-6.73-.97-2.79,0-5.05.78-7.66,1.93s-5.57,2.65-9.78,4.09c-8.73,2.61-13.46.85-21.82,1.18-1.84.08-3.15.27-3.76.32-1.95.2-3.74.41-5.3.61-1.57.2-2.93.4-4.02.58-.95.04-4.66-.91-12.32-3.29-7.06-2.2-10.16-1.79-14.62-4.04-.68-.34-8.9-4.54-8.19-7.51.33-1.44,2.58-1.84,6.01-2.75,8.59-2.28,17.48-4.63,22.18-10.8.98-1.28,2.95-3.86,3.08-7.4.21-5.79-4.78-6.91-5.88-13.29-1.1-6.41,3.02-8.19,1.26-14.99-1.08-4.21-3.74-7.58-3.35-7.84.24-.16,1.29,1.03,2.21,2.06,1.69,1.92,2.13,2.85,3.03,3.87,1.57,1.76,3.31,2.37,4.75,3.03,2.88,1.31,5.3,3.15,9.85,7.16,6.9,6.11,10.05,14.01,12.1,18.59,6.95,15.5,7.9,13.44,11.74,16.09,6.72,4.62,15.64,6.85,22.63,10.22,1.37.66,4.01,2.61,4.62,3.07Z" style="fill: #da1d75; stroke-width: 0px;"/>
        <path d="M287.52,90.75c-.7,2.97,7.52,7.17,8.19,7.51,4.46,2.25,7.56,1.84,14.62,4.04,7.66,2.38,11.37,3.33,12.32,3.29,1.1-.18,2.45-.38,4.02-.58,1.57-.21,3.35-.42,5.3-.61.6-.05,1.92-.25,3.76-.32,8.36-.34,13.09,1.43,21.82-1.18,4.21-1.44,7.17-2.94,9.78-4.09s4.87-1.94,7.66-1.93c2.37.01,4.63.37,6.73.97.05,0,.07-.04.03-.06-.6-.46-3.25-2.41-4.62-3.07-6.99-3.37-15.91-5.6-22.63-10.22-3.85-2.65-4.8-.58-11.74-16.09-2.05-4.57-5.2-12.47-12.1-18.59-4.54-4.01-6.97-5.85-9.85-7.16-1.45-.66-3.18-1.27-4.75-3.03-.9-1.02-1.34-1.95-3.03-3.87-.92-1.03-1.97-2.22-2.21-2.06-.4.25,2.26,3.63,3.35,7.84,1.76,6.81-2.36,8.58-1.26,14.99,1.1,6.38,6.09,7.49,5.88,13.29-.13,3.54-2.1,6.12-3.08,7.4-4.71,6.17-13.59,8.51-22.18,10.8-3.44.91-5.69,1.31-6.01,2.75Z" style="fill: none; stroke: #1d1d1b; stroke-miterlimit: 10; stroke-width: 10px;"/>
      </g>
      <g>
        <path d="M214.49,203.87c1.42,9.8,2.83,35.05-14.61,57.71-23.62,30.68-62.1,29.48-66.4,29.25-11.01-.61-21.71-3.55-31.83-8.74-.51-18.1,5.45-37.82,17.72-58.68.86,1.09,1.87,2.16,3.06,3.18,3.59,3.07,7.97,4.88,13.01,5.4,6.85.69,14.73-1.72,20.08-6.17,3.38-2.81,5.32-6.06,5.6-9.4.3-3.58-1.28-7.3-4.43-10.48-5.15-5.2-13.63-8.32-21.11-7.77-11.07.82-17.76,9.12-19.79,12.05l-.14.22c-21.97,32.31-23.85,75.12-23.85,75.12-.3,6.89-2.16,49.1-1.21,63.69.05.82.26,3.49-1.19,6.1-3.36,6.05-12.46,6.91-16.55,7.29-5.4.49-50.14,4.61-64.57-21.1-8.06-14.36-.52-33.21,14.55-70.91,9.88-24.73,19.12-40.19,34.27-65.53,20.21-33.82,31.88-46.52,44.57-53.53,8.81-4.86,18.7-8.16,28.61-9.55,2.84-.4,7.77-1.08,13.96-1.08,10.93,0,25.81,2.14,40.02,11.85,22.87,15.6,28.76,40.92,30.23,51.08Z" style="fill: #fff; stroke-width: 0px;"/>
        <path d="M144.24,140.94c-6.19,0-11.12.68-13.96,1.08-9.91,1.39-19.8,4.69-28.61,9.55-12.69,7.01-24.36,19.71-44.57,53.53-15.15,25.34-24.39,40.8-34.27,65.53-15.07,37.7-22.61,56.55-14.55,70.91,14.43,25.71,59.17,21.59,64.57,21.1,4.09-.38,13.19-1.24,16.55-7.29,1.45-2.61,1.24-5.28,1.19-6.1-.95-14.59.91-56.8,1.21-63.69,0,0,1.88-42.81,23.85-75.12l.14-.22c2.03-2.93,8.72-11.23,19.79-12.05,7.48-.55,15.96,2.57,21.11,7.77,3.15,3.18,4.73,6.9,4.43,10.48-.28,3.34-2.22,6.59-5.6,9.4-5.35,4.45-13.23,6.86-20.08,6.17-5.04-.52-9.42-2.33-13.01-5.4-1.19-1.02-2.2-2.09-3.06-3.18-12.27,20.86-18.23,40.58-17.72,58.68,10.12,5.19,20.82,8.13,31.83,8.74,4.3.23,42.78,1.43,66.4-29.25,17.44-22.66,16.03-47.91,14.61-57.71-1.47-10.16-7.36-35.48-30.23-51.08-14.21-9.71-29.09-11.85-40.02-11.85Z" style="fill: none; stroke: #1d1d1b; stroke-miterlimit: 10; stroke-width: 10px;"/>
      </g>
      <g>
        <g>
          <path d="M312.64,59.16c.12,6.95,4.04,8.62,2.78,11.93-.43,1.13-1.29,1.99-11.04,5.84-7.45,2.94-8.31,2.98-11.03,4.55-3.7,2.12-8.33,4.78-9.1,9.09-.68,3.85,2.44,5.15,1.95,7.79-1.57,8.54-36.89,9.61-54.16,6.58-20.03-3.51-20.78-7.58-36.1-7.88-7.39-.14-22.9-.24-36.7,9.5-7.06,4.98-11.87,11.27-14.83,15.12-3.89,5.05-7.28,10.69-10.41,17.39-15.64-2.23-59.64,21.63-71.91,56.94-.62,1.77-.98,2.55-1.12,2.52-.92-.24,2.1-34.9,19.39-70.81,5.71-11.87,15.27-28.62,30.52-45.6,18.27-20.33,35.82-31.12,62.34-47.4,19.08-11.72,28.67-17.42,42.2-22.08,6.25-2.14,12.14-3.68,17.76-4.77,3.05-.59,5.49-.96,7.84-1.2,1.54-.15,3.9-.41,7.05-.65,8.4-.64,14.43-1.02,19.26-1.02,3.75,0,6.76.23,9.58.76,12.95,1.85,21.7,9.9,23.73,11.86,5.88,5.67,8.7,11.53,9.72,13.86,1.04,2.38,2.77,6.42,3.19,11.86.22,2.75.08,5.35-.07,7.62-.39,5.73-.89,5.72-.84,8.2ZM281.01,43.84c1.04-5.65-2.05-12.51-5.5-12.85-3.88-.37-7.31,7.58-8.38,10.05-1.56,3.62-4.66,12.68-1.71,14.72,3.19,2.21,14.04-3.44,15.59-11.92Z" style="fill: #fff; stroke-width: 0px;"/>
          <path d="M275.51,30.99c3.45.34,6.54,7.2,5.5,12.85-1.55,8.48-12.4,14.13-15.59,11.92-2.95-2.04.15-11.1,1.71-14.72,1.07-2.47,4.5-10.42,8.38-10.05Z" style="fill: #1d1d1b; stroke-width: 0px;"/>
        </g>
        <path d="M284.25,90.57c.77-4.31,5.4-6.97,9.1-9.09,2.72-1.57,3.58-1.61,11.03-4.55,9.75-3.85,10.61-4.71,11.04-5.84,1.26-3.31-2.66-4.98-2.78-11.93-.05-2.48.45-2.47.84-8.2.15-2.27.29-4.87.07-7.62-.42-5.44-2.15-9.48-3.19-11.86-1.02-2.33-3.84-8.19-9.72-13.86-2.03-1.96-10.78-10.01-23.73-11.86-2.82-.53-5.83-.76-9.58-.76-4.83,0-10.86.38-19.26,1.02-3.15.24-5.51.5-7.05.65-2.35.24-4.79.61-7.84,1.2-5.62,1.09-11.51,2.63-17.76,4.77-13.53,4.66-23.12,10.36-42.2,22.08-26.52,16.28-44.07,27.07-62.34,47.4-15.25,16.98-24.81,33.73-30.52,45.6-17.29,35.91-20.31,70.57-19.39,70.81.14.03.5-.75,1.12-2.52,12.27-35.31,56.27-59.17,71.91-56.94,3.13-6.7,6.52-12.34,10.41-17.39,2.96-3.85,7.77-10.14,14.83-15.12,13.8-9.74,29.31-9.64,36.7-9.5,15.32.3,16.07,4.37,36.1,7.88,17.27,3.03,52.59,1.96,54.16-6.58.49-2.64-2.63-3.94-1.95-7.79Z" style="fill: none; stroke: #1d1d1b; stroke-miterlimit: 10; stroke-width: 10px;"/>
      </g>
    </g>
  </g>
</svg>